# xmcd
#
# Track frame offsets:
# 150
# 13669
# 27500
# 40311
# 50419
# 66074
# 83971
# 95853
# 111740
# 123793
# 135003
# 147590
# 160231
# 170920
# 188411
# 200030
# 213257
# 224357
#
# Disc length: 3080 seconds
#
#
# Revision: 1
# Processed by: cddbd v1.5.1PL2 Copyright (c) Steve Scherf et al.
# Submitted via: FreeRIP 2.945 
#
DISCID=0f0c0612
DTITLE=Don Williams - Best Friends
DYEAR=1900
DGENRE=Country
TTITLE0=Ruby Tuesday
TTITLE1=You're My Best Friend
TTITLE2=Amanda
TTITLE3=Take My Hand For A While
TTITLE4=Tears
TTITLE5=Good Ole Boys Like Me
TTITLE6=Tulsa Time
TTITLE7=I've Been Loved By The Best
TTITLE8=On Her Way To Be A Woman
TTITLE9=Storybook Children
TTITLE10=Coming Apart
TTITLE11=There's Never Been A Time
TTITLE12=Always Something There To Remind Me
TTITLE13=I Believe In You
TTITLE14=Follow Me Back To Louisville
TTITLE15=Where Do We Go From Here
TTITLE16=Spend Some Time With Me
TTITLE17=Lord I Hope This Day Is Good
EXTD=
EXTT0=
EXTT1=
EXTT2=
EXTT3=
EXTT4=
EXTT5=
EXTT6=
EXTT7=
EXTT8=
EXTT9=
EXTT10=
EXTT11=
EXTT12=
EXTT13=
EXTT14=
EXTT15=
EXTT16=
EXTT17=
PLAYORDER=
